PathFileType	4	(X/Y/Z)	./resultDataOpenSim/trcMotMarkerGrf/sub10/qtm-15-03.trc
DataRate	CameraRate	NumFrames	NumMarkers	Units	OrigDataRate	OrigDataStartFrame	OrigNumFrames
250.000000	250.000000	8	24	m	250.000000	61	487
Frame#	Time	L.Toe.Tip			R.Toe.Tip			L.Ankle.Lat			R.Ankle.Lat			L.Ankle.Med			R.Ankle.Med			L.Heel			R.Heel			L.Knee.Lat			R.Knee.Lat			L.Knee.Med			R.Knee.Med			L.Thigh.Upper			R.Thigh.Upper			L.ASIS			R.ASIS			V.Sacral			L.Acromium			R.Acromium			C7			L.Elbow			R.Elbow			L.Wrist.Lat			R.Wrist.Lat
		X1	Y1	Z1	X2	Y2	Z2	X3	Y3	Z3	X4	Y4	Z4	X5	Y5	Z5	X6	Y6	Z6	X7	Y7	Z7	X8	Y8	Z8	X9	Y9	Z9	X10	Y10	Z10	X11	Y11	Z11	X12	Y12	Z12	X13	Y13	Z13	X14	Y14	Z14	X15	Y15	Z15	X16	Y16	Z16	X17	Y17	Z17	X18	Y18	Z18	X19	Y19	Z19	X20	Y20	Z20	X21	Y21	Z21	X22	Y22	Z22	X23	Y23	Z23	X24	Y24	Z24

61	0.24	-1.3546996	0.06032178	-0.14430543	-0.69796075	0.039171263	-0.047563611	-1.3609492	0.19189185	-0.20109519	-0.83273609	0.051624473	0.0055148453	-1.3349169	0.19452826	-0.12261614	-0.82639267	0.081985635	-0.078722051	-1.401691	0.24250409	-0.15177032	-0.88951849	0.028529601	-0.036724005	-1.0644278	0.4260747	-0.24040156	-0.81766739	0.44968864	0.050458261	-1.0313464	0.382169	-0.13163393	-0.82554244	0.46277756	-0.076983136	-1.0024357	0.80527974	-0.24861636	-0.91577864	0.85346297	0.1285225	-0.9217272	0.90828564	-0.19454361	-0.87040793	0.94154342	0.040269539	-1.0903242	0.94529601	-0.034928202	-0.92164683	1.3923942	-0.21843798	-0.94547543	1.3946278	0.10150846	-1.0154093	1.4281356	-0.066622632	-0.97819971	1.0496665	-0.29445439	-1.0981579	1.0894987	0.14216616	-0.76367095	0.92413544	-0.26125467	-1.0716895	0.87022092	0.24422599
62	0.244	-1.3452865	0.063084157	-0.14718606	-0.69793923	0.039098053	-0.047528833	-1.3504507	0.19503277	-0.20257426	-0.83286366	0.051609002	0.0056289735	-1.3244848	0.19701067	-0.12408526	-0.82617863	0.08202986	-0.078606172	-1.3906546	0.24567689	-0.15362323	-0.88956776	0.028543708	-0.03668365	-1.0522804	0.42592012	-0.24146352	-0.81530341	0.44937809	0.050737791	-1.0197739	0.38301522	-0.13197893	-0.82300956	0.46240588	-0.076639279	-0.99518476	0.80587864	-0.24857556	-0.91065452	0.85410992	0.12885888	-0.91551059	0.90923156	-0.19427194	-0.86471511	0.94233374	0.040492656	-1.0846073	0.9459378	-0.034968884	-0.91636488	1.3934266	-0.2181851	-0.93909569	1.3953938	0.10191964	-1.0098409	1.429174	-0.065963021	-0.97417379	1.0511196	-0.2940229	-1.0910169	1.0897161	0.14318239	-0.76085166	0.92296119	-0.26189781	-1.0624537	0.87014726	0.24421017
63	0.248	-1.3351694	0.065795469	-0.15007905	-0.69789502	0.03902471	-0.047518489	-1.339976	0.1980444	-0.20390444	-0.83297466	0.051596762	0.0057383451	-1.3120262	0.19957199	-0.12594944	-0.82591958	0.082081393	-0.078507936	-1.3797465	0.24863083	-0.15556442	-0.88961812	0.028563216	-0.03665086	-1.0401418	0.42595043	-0.24242922	-0.81309293	0.44909657	0.05105606	-1.008274	0.38403106	-0.13218672	-0.82066138	0.46208727	-0.076297625	-0.98799518	0.80657256	-0.24860844	-0.90563445	0.8546648	0.12915943	-0.90935002	0.91027219	-0.19409484	-0.8590331	0.94308026	0.040713298	-1.0789333	0.94663935	-0.03496246	-0.91108656	1.3944668	-0.21797204	-0.93282555	1.3961653	0.10224035	-1.0042496	1.4302332	-0.065292401	-0.97023483	1.0525756	-0.29368009	-1.0837899	1.089922	0.14434066	-0.7580503	0.92177974	-0.26257918	-1.0530516	0.87005954	0.24414394
64	0.252	-1.3242844	0.068339885	-0.15307749	-0.69782658	0.038952975	-0.047526999	-1.32939	0.20090983	-0.20513496	-0.83306079	0.051584779	0.0058384526	-1.2986842	0.2021204	-0.12793086	-0.82562036	0.08213529	-0.078431687	-1.3691097	0.25127986	-0.15710568	-0.88966685	0.028588717	-0.036625837	-1.0279744	0.42617824	-0.24326115	-0.81120403	0.44887896	0.051476898	-0.99675566	0.38516397	-0.13233531	-0.81853959	0.46182285	-0.075931438	-0.98087408	0.80729727	-0.24865877	-0.90071426	0.85513392	0.12943037	-0.90327931	0.91141413	-0.19403516	-0.85338236	0.94379233	0.040940897	-1.0732992	0.94744704	-0.034904897	-0.90580485	1.3955133	-0.21779465	-0.92659666	1.3969471	0.1024954	-0.99865299	1.4313133	-0.064613174	-0.96636122	1.0540305	-0.29340806	-1.0765497	1.090113	0.14547068	-0.75540115	0.92058446	-0.26334476	-1.0436538	0.86995654	0.2440107
65	0.256	-1.3126881	0.070642109	-0.15614754	-0.69773543	0.038883819	-0.04755018	-1.3185032	0.20362755	-0.20634257	-0.83311918	0.05156923	0.005929253	-1.2858393	0.20451225	-0.12967972	-0.82528641	0.08218918	-0.078375884	-1.3586607	0.25358088	-0.15823062	-0.88971157	0.02862097	-0.036603615	-1.0157547	0.42661899	-0.24393449	-0.80970894	0.44871309	0.052016152	-0.98526531	0.38636003	-0.13246684	-0.81676574	0.4616077	-0.075476526	-0.97380496	0.808061	-0.24867464	-0.89588508	0.85553178	0.12966345	-0.89728795	0.91265547	-0.19407696	-0.84782498	0.94446478	0.041153604	-1.0676898	0.9483216	-0.034839645	-0.90051709	1.3965723	-0.21765126	-0.92034753	1.3977377	0.10270066	-0.99307413	1.4324093	-0.063941158	-0.9625124	1.0554822	-0.29313052	-1.069477	1.0902752	0.14613684	-0.75298206	0.91937115	-0.26422021	-1.0343156	0.86985058	0.2438293
66	0.26	-1.3004966	0.072703612	-0.15921295	-0.69762615	0.038815724	-0.04758409	-1.3072777	0.20618118	-0.2075455	-0.8331497	0.051549528	0.0060116682	-1.2738537	0.20669252	-0.13109272	-0.82492747	0.082243943	-0.078332545	-1.3482293	0.25553872	-0.15920811	-0.88975009	0.028662001	-0.036578583	-1.0034574	0.42727271	-0.24446111	-0.80861362	0.44856485	0.052675677	-0.97392387	0.3875801	-0.13258754	-0.81542645	0.46143503	-0.074900066	-0.96677729	0.8089039	-0.24863505	-0.89112124	0.85588319	0.12985069	-0.89137385	0.91398554	-0.19419427	-0.84244106	0.94508551	0.041315499	-1.0620942	0.94920797	-0.034810984	-0.89522907	1.3976526	-0.21753549	-0.91405236	1.3985314	0.10285833	-0.9875311	1.4335123	-0.063295768	-0.95865524	1.056933	-0.29278985	-1.0627068	1.0903708	0.14582592	-0.75074227	0.91814564	-0.26517029	-1.0249844	0.8697561	0.2436229
67	0.264	-1.287816	0.074558871	-0.16223708	-0.6975053	0.038747634	-0.047623668	-1.2958124	0.2085342	-0.20870416	-0.83315438	0.051531841	0.0060870863	-1.2623357	0.20868257	-0.1322716	-0.82456337	0.082302527	-0.078291764	-1.3377287	0.25715811	-0.16025164	-0.88978111	0.028714041	-0.036548077	-0.99107464	0.42811017	-0.24490248	-0.80784915	0.44841653	0.053436129	-0.96276283	0.3888149	-0.13271724	-0.8144291	0.46130203	-0.07425238	-0.95980986	0.80983554	-0.2485633	-0.88637607	0.85621906	0.13001287	-0.88557224	0.91538818	-0.19437736	-0.8372581	0.94565487	0.041428472	-1.0565145	0.95009379	-0.034834462	-0.88994953	1.3987536	-0.21743849	-0.90772668	1.3993243	0.10296982	-0.98202878	1.4346139	-0.062685892	-0.95478178	1.0583871	-0.29239377	-1.0560517	1.090358	0.14456802	-0.74858707	0.91691826	-0.26613411	-1.0156079	0.86967698	0.2434
68	0.268	-1.2746773	0.076227406	-0.16524746	-0.69738059	0.038682559	-0.047661782	-1.2841801	0.2106523	-0.20979604	-0.83313734	0.051526065	0.0061598045	-1.2508656	0.21049335	-0.13333734	-0.8242221	0.082367215	-0.078247803	-1.3271392	0.25842604	-0.16136385	-0.88980573	0.0287764	-0.036515758	-0.97863728	0.42908854	-0.24534056	-0.80718572	0.44828028	0.054202557	-0.95162868	0.39008001	-0.1328979	-0.81346668	0.46121234	-0.07366158	-0.95295399	0.81082098	-0.24852697	-0.88159779	0.85657119	0.1301868	-0.87993122	0.9168415	-0.19463073	-0.83216977	0.9461984	0.041560972	-1.0509647	0.95100732	-0.034904567	-0.8846894	1.3998676	-0.21735227	-0.90141474	1.4001187	0.10305218	-0.97656175	1.4357061	-0.062109661	-0.95090326	1.0598476	-0.29197693	-1.0490516	1.090242	0.14327013	-0.74647545	0.91570042	-0.26708008	-1.0061918	0.86960852	0.24316181
